<svg width="1280" height="640" viewBox="0 0 1280 640" xmlns="http://www.w3.org/2000/svg">
    <rect width="1280" height="640" fill="transparent" rx="19.2" ry="19.2"></rect>
    <rect x="16" y="16" width="1248" height="608" fill="none" stroke="#4A90E2" stroke-width="3.2"
        stroke-dasharray="12.8,6.4" opacity="0.7" rx="16" ry="16"></rect>
    <defs>
        <pattern id="grid" width="32" height="32" patternUnits="userSpaceOnUse">
            <path d="M 32 0 L 0 0 0 32" fill="none" stroke="#4A90E2" stroke-width="0.8"
                opacity="0.3"></path>
        </pattern>
        <pattern id="hatch-dark-blue" patternUnits="userSpaceOnUse" width="12.8" height="12.8">
            <path d="M0,12.8 L12.8,0" stroke="#216C89" stroke-width="1.28" opacity="0.3"></path>
        </pattern>
        <pattern id="hatch-medium-blue" patternUnits="userSpaceOnUse" width="9.6" height="9.6">
            <path d="M0,9.6 L9.6,0" stroke="#4993AA" stroke-width="0.96" opacity="0.25"></path>
        </pattern>
        <pattern id="hatch-light-blue" patternUnits="userSpaceOnUse" width="16" height="16">
            <path d="M0,16 L16,0" stroke="#0F4565" stroke-width="1.6" opacity="0.2"></path>
        </pattern>
        <pattern id="hatch-cyan" patternUnits="userSpaceOnUse" width="11.2" height="11.2">
            <path d="M0,0 L11.2,11.2" stroke="#6BE8E8" stroke-width="1.12" opacity="0.3"></path>
        </pattern>
        <pattern id="hatch-light-cyan" patternUnits="userSpaceOnUse" width="8" height="8">
            <path d="M0,0 L8,8" stroke="#9DEEF4" stroke-width="0.8" opacity="0.25"></path>
        </pattern>
        <pattern id="hatch-teal" patternUnits="userSpaceOnUse" width="14.4" height="14.4">
            <path d="M0,0 L14.4,14.4" stroke="#4ACFDD" stroke-width="1.28" opacity="0.2"></path>
        </pattern>
        <pattern id="hatch-orange" patternUnits="userSpaceOnUse" width="9.6" height="9.6">
            <path d="M0,0 L9.6,9.6 M0,9.6 L9.6,0" stroke="#E38017" stroke-width="0.96" opacity="0.3"></path>
        </pattern>
        <pattern id="hatch-green" patternUnits="userSpaceOnUse" width="12.8" height="12.8">
            <path d="M0,0 L12.8,12.8" stroke="#16AFB5" stroke-width="1.12" opacity="0.25"></path>
        </pattern>
    </defs>
    <rect width="1280" height="640" fill="url(#grid)" rx="19.2" ry="19.2"></rect>
    <g stroke="#4A90E2" stroke-width="3.2" fill="none" opacity="0.8" stroke-linecap="round">
        <path d="M 40 40 L 72 40 M 40 40 L 40 72"></path>
        <path d="M 1240 40 L 1208 40 M 1240 40 L 1240 72"></path>
        <path d="M 40 600 L 72 600 M 40 600 L 40 568"></path>
        <path d="M 1240 600 L 1208 600 M 1240 600 L 1240 568"></path>
    </g>
    <text x="80" y="56" font-family="&#x27;Geist Mono&#x27;, &#x27;Courier New&#x27;, monospace"
        font-size="16" fill="#4A90E2" text-anchor="start">srivarra/xrdantic</text>
    <text x="1200" y="584" font-family="&#x27;Geist Mono&#x27;, &#x27;Courier New&#x27;, monospace"
        font-size="16" fill="#4A90E2" text-anchor="end">REV: 0.0.1</text>
    <g transform="translate(120, 120) scale(0.65)">
        <polygon points="266.62,546.18 356.1,454.54 356.1,271.27 266.62,362.9"
            fill="url(#hatch-dark-blue)" stroke="#216C89" stroke-width="6.4"
            stroke-dasharray="12.8,6.4" stroke-linejoin="round"></polygon>
        <polygon points="356.1,271.45 114.48,271.45 25,362.9 266.62,362.9"
            fill="url(#hatch-medium-blue)" stroke="#4993AA" stroke-width="6.4"
            stroke-dasharray="12.8,6.4" stroke-linejoin="round"></polygon>
        <rect x="25" y="362.9" width="241.62" height="183.27" fill="url(#hatch-light-blue)"
            stroke="#0F4565" stroke-width="6.4" stroke-dasharray="12.8,6.4" rx="12.8" ry="12.8"></rect>
        <polygon points="266.62,328.73 356.1,237.1 356.1,53.82 266.62,145.46"
            fill="url(#hatch-cyan)" stroke="#6BE8E8" stroke-width="6.4" stroke-dasharray="12.8,6.4"
            stroke-linejoin="round"></polygon>
        <polygon points="356.1,54 114.48,54 25,145.46 266.62,145.46" fill="url(#hatch-light-cyan)"
            stroke="#9DEEF4" stroke-width="6.4" stroke-dasharray="12.8,6.4" stroke-linejoin="round"></polygon>
        <rect x="25" y="145.46" width="241.62" height="183.27" fill="url(#hatch-teal)"
            stroke="#4ACFDD" stroke-width="6.4" stroke-dasharray="12.8,6.4" rx="12.8" ry="12.8"></rect>
        <polygon points="467.47,452.33 374.48,546.18 374.48,362.9 467.47,269.05"
            fill="url(#hatch-orange)" stroke="#E38017" stroke-width="6.4"
            stroke-dasharray="12.8,6.4" stroke-linejoin="round"></polygon>
        <polygon points="575,452.33 482.01,546.18 482.01,362.9 575,269.05" fill="url(#hatch-green)"
            stroke="#16AFB5" stroke-width="6.4" stroke-dasharray="12.8,6.4" stroke-linejoin="round"></polygon>
    </g>
    <text x="640" y="160" font-family="&#x27;Geist Mono&#x27;, &#x27;Courier New&#x27;, monospace"
        font-size="64" font-weight="bold" fill="#2C5282" text-anchor="middle">XRDANTIC</text>
    <text x="640" y="200" font-family="&#x27;Geist Mono&#x27;, &#x27;Courier New&#x27;, monospace"
        font-size="28" fill="#4A90E2" text-anchor="middle">Pydantic Scaffolding for Xarray</text>
    <g transform="translate(832, 240) scale(1.2)">
        <rect x="-230" y="-20" width="500" height="280" fill="none" stroke="#4A90E2"
            stroke-width="1.6" stroke-dasharray="4.8,4.8" opacity="0.3" rx="6.4"></rect>
        <g transform="translate(-140, 50) translate(0, -18)">
            <line x1="-60" y1="0" x2="60" y2="0" stroke="#6BE8E8" stroke-width="4"
                stroke-dasharray="12,6"></line>
            <circle cx="-60" cy="0" r="6" fill="#6BE8E8"></circle>
            <circle cx="-30" cy="0" r="4" fill="none" stroke="#6BE8E8" stroke-width="2"></circle>
            <circle cx="0" cy="0" r="4" fill="none" stroke="#6BE8E8" stroke-width="2"></circle>
            <circle cx="30" cy="0" r="4" fill="none" stroke="#6BE8E8" stroke-width="2"></circle>
            <circle cx="60" cy="0" r="6" fill="#6BE8E8"></circle>
            <text x="0" y="35"
                font-family="&#x27;Geist Mono&#x27;, &#x27;Courier New&#x27;, monospace"
                font-size="16" fill="#4A90E2" text-anchor="middle">Coordinates</text>
        </g>
        <g transform="translate(140, 50) translate(0, -24)">
            <rect x="-45" y="-12" width="24" height="24" fill="url(#hatch-medium-blue)"
                stroke="#4993AA" stroke-width="2" stroke-dasharray="6,3" rx="3"></rect>
            <rect x="-12" y="-12" width="24" height="24" fill="url(#hatch-medium-blue)"
                stroke="#4993AA" stroke-width="2" stroke-dasharray="6,3" rx="3"></rect>
            <rect x="21" y="-12" width="24" height="24" fill="url(#hatch-medium-blue)"
                stroke="#4993AA" stroke-width="2" stroke-dasharray="6,3" rx="3"></rect>
            <rect x="-45" y="18" width="24" height="24" fill="url(#hatch-medium-blue)"
                stroke="#4993AA" stroke-width="2" stroke-dasharray="6,3" rx="3"></rect>
            <rect x="-12" y="18" width="24" height="24" fill="url(#hatch-medium-blue)"
                stroke="#4993AA" stroke-width="2" stroke-dasharray="6,3" rx="3"></rect>
            <rect x="21" y="18" width="24" height="24" fill="url(#hatch-medium-blue)"
                stroke="#4993AA" stroke-width="2" stroke-dasharray="6,3" rx="3"></rect>
            <text x="0" y="65"
                font-family="&#x27;Geist Mono&#x27;, &#x27;Courier New&#x27;, monospace"
                font-size="16" fill="#4A90E2" text-anchor="middle">DataArrays</text>
        </g>
        <g transform="translate(-140, 170) translate(0, -30)">
            <rect x="-24" y="-12" width="20" height="20" fill="url(#hatch-light-blue)"
                stroke="#0F4565" stroke-width="2" stroke-dasharray="6,3" rx="3" opacity="0.7"></rect>
            <rect x="4" y="-12" width="20" height="20" fill="url(#hatch-light-blue)"
                stroke="#0F4565" stroke-width="2" stroke-dasharray="6,3" rx="3" opacity="0.7"></rect>
            <rect x="-24" y="16" width="20" height="20" fill="url(#hatch-light-blue)"
                stroke="#0F4565" stroke-width="2" stroke-dasharray="6,3" rx="3" opacity="0.7"></rect>
            <rect x="4" y="16" width="20" height="20" fill="url(#hatch-light-blue)" stroke="#0F4565"
                stroke-width="2" stroke-dasharray="6,3" rx="3" opacity="0.7"></rect>
            <rect x="-36" y="0" width="20" height="20" fill="url(#hatch-dark-blue)" stroke="#216C89"
                stroke-width="2" stroke-dasharray="6,3" rx="3"></rect>
            <rect x="-8" y="0" width="20" height="20" fill="url(#hatch-dark-blue)" stroke="#216C89"
                stroke-width="2" stroke-dasharray="6,3" rx="3"></rect>
            <rect x="-36" y="28" width="20" height="20" fill="url(#hatch-dark-blue)"
                stroke="#216C89" stroke-width="2" stroke-dasharray="6,3" rx="3"></rect>
            <rect x="-8" y="28" width="20" height="20" fill="url(#hatch-dark-blue)" stroke="#216C89"
                stroke-width="2" stroke-dasharray="6,3" rx="3"></rect>
            <line x1="-16" y1="0" x2="-4" y2="-12" stroke="#4A90E2" stroke-width="1.5" opacity="0.6"></line>
            <line x1="12" y1="0" x2="24" y2="-12" stroke="#4A90E2" stroke-width="1.5" opacity="0.6"></line>
            <line x1="-16" y1="28" x2="-4" y2="16" stroke="#4A90E2" stroke-width="1.5" opacity="0.6"></line>
            <line x1="12" y1="28" x2="24" y2="16" stroke="#4A90E2" stroke-width="1.5" opacity="0.6"></line>
            <text x="0" y="75"
                font-family="&#x27;Geist Mono&#x27;, &#x27;Courier New&#x27;, monospace"
                font-size="16" fill="#4A90E2" text-anchor="middle">Datasets</text>
        </g>
        <g transform="translate(140, 170) translate(0, -30)">
            <rect x="-16" y="-8" width="32" height="16" fill="url(#hatch-orange)" stroke="#E38017"
                stroke-width="2" stroke-dasharray="6,3" rx="3"></rect>
            <line x1="0" y1="8" x2="0" y2="24" stroke="#16AFB5" stroke-width="3"
                stroke-dasharray="8,4"></line>
            <line x1="-32" y1="24" x2="32" y2="24" stroke="#16AFB5" stroke-width="3"
                stroke-dasharray="8,4"></line>
            <line x1="-32" y1="24" x2="-32" y2="40" stroke="#16AFB5" stroke-width="3"
                stroke-dasharray="8,4"></line>
            <line x1="0" y1="24" x2="0" y2="40" stroke="#16AFB5" stroke-width="3"
                stroke-dasharray="8,4"></line>
            <line x1="32" y1="24" x2="32" y2="40" stroke="#16AFB5" stroke-width="3"
                stroke-dasharray="8,4"></line>
            <rect x="-44" y="40" width="24" height="16" fill="url(#hatch-green)" stroke="#16AFB5"
                stroke-width="2" stroke-dasharray="6,3" rx="3"></rect>
            <rect x="-12" y="40" width="24" height="16" fill="url(#hatch-green)" stroke="#16AFB5"
                stroke-width="2" stroke-dasharray="6,3" rx="3"></rect>
            <rect x="20" y="40" width="24" height="16" fill="url(#hatch-green)" stroke="#16AFB5"
                stroke-width="2" stroke-dasharray="6,3" rx="3"></rect>
            <text x="0" y="85"
                font-family="&#x27;Geist Mono&#x27;, &#x27;Courier New&#x27;, monospace"
                font-size="16" fill="#4A90E2" text-anchor="middle">DataTrees</text>
        </g>
    </g>
</svg>
